<svg id="Layer_1" height="512" fill="white" viewBox="0 0 512 512" width="512" xmlns="http://www.w3.org/2000/svg" data-name="Layer 1"><path d="m488.658 23.375a80.118 80.118 0 0 0 -104.02-7.845l111.862 111.877a80.275 80.275 0 0 0 -7.844-104.032zm-44.583 217.466v224.18a47.051 47.051 0 0 1 -46.99 47h-350.06a47.06 47.06 0 0 1 -47.036-47v-350.069a47.06 47.06 0 0 1 47.036-47h224.142a12 12 0 1 1 0 24h-224.142a23.034 23.034 0 0 0 -23.023 23v350.069a23.04 23.04 0 0 0 23.023 23h350.06a23 23 0 0 0 22.976-23v-224.18a12.007 12.007 0 0 1 24.014 0zm-77.057-208.96 113.14 113.14-275.946 275.946-113.164-113.161zm-288.501 297.347-10.545 101.622a12.066 12.066 0 0 0 3.492 9.733 11.868 11.868 0 0 0 8.492 3.51c.377 0 .8-.019 1.226-.061l101.592-10.539z" fill-rule="evenodd"/></svg>