<svg id="Layer_1" height="512" viewBox="0 0 32 32" width="512" xmlns="http://www.w3.org/2000/svg"><g id="style_2"><g><path d="m16 31.495c-8.547 0-15.5-6.953-15.5-15.5s6.953-15.5 15.5-15.5 15.5 6.953 15.5 15.5-6.953 15.5-15.5 15.5z" fill="#fff"/><g><path d="m16 .995c8.271 0 15 6.729 15 15s-6.729 15-15 15-15-6.729-15-15 6.729-15 15-15m0-1c-8.837 0-16 7.163-16 16s7.163 16 16 16 16-7.163 16-16-7.163-16-16-16z" fill="#004259"/></g></g><g fill="#004259"><path d="m21.852 26.09h-11.704c-.993 0-1.801-.808-1.801-1.8v-15.442h1v15.442c0 .441.359.8.801.8h11.703c.441 0 .801-.358.801-.8v-15.442h1v15.442c0 .992-.807 1.8-1.8 1.8z"/><path d="m7.375 8.186h17.25v1h-17.25z"/><path d="m19.643 9.186h-7.285v-3.276h7.285zm-6.286-1h5.285v-1.276h-5.285z"/></g><g><path d="m12 13.78h8v1h-8z" fill="#004259"/></g><g><path d="m12 16.625h8v1h-8z" fill="#004259"/></g><g><path d="m12 19.47h8v1h-8z" fill="#004259"/></g></g></svg>